# xmcd
#
# Track frame offsets: 
#        150
#        20530
#        34957
#        51530
#        72297
#        85445
#        102282
#        116310
#        127607
#        138415
#        154817
#        180690
#
# Disc length: 2678 seconds
#
# Revision: 1
# Processed by: cddbd v1.5.2PL0 Copyright (c) Steve Scherf et al.
# Submitted via: ExactAudioCopyFreeDBPlugin 1.0
#
DISCID=a10a740c
DTITLE=Brighter Side Of Darkness - Love Jones
DYEAR=1973
DGENRE=Soul
TTITLE0=Love Jones
TTITLE1=I'm A Loser
TTITLE2=Because I Love You
TTITLE3=Just A Little Bit
TTITLE4=Oh Baby
TTITLE5=I Owe You Love
TTITLE6=Something To Remember You By
TTITLE7=I'm The Guy
TTITLE8=Summer Ride
TTITLE9=Touchdown
TTITLE10=Just A Little Bit (Inst.)
TTITLE11=Love Jones (Inst.)
EXTD=
EXTT0=
EXTT1=
EXTT2=
EXTT3=
EXTT4=
EXTT5=
EXTT6=
EXTT7=
EXTT8=
EXTT9=
EXTT10=
EXTT11=
PLAYORDER=
